<?xml version="1.0" standalone="no"?>
<!DOCTYPE svg PUBLIC "-//W3C//DTD SVG 20010904//EN"
 "http://www.w3.org/TR/2001/REC-SVG-20010904/DTD/svg10.dtd">
<svg version="1.0" xmlns="http://www.w3.org/2000/svg"
 width="200.000000pt" height="200.000000pt" viewBox="0 0 200.000000 200.000000"
 preserveAspectRatio="xMidYMid meet">

<g transform="translate(0.000000,200.000000) scale(0.100000,-0.100000)"
fill="#000000" stroke="none">
<path d="M327 1213 c-4 -3 -7 -15 -7 -25 0 -13 -8 -18 -30 -18 -25 0 -30 -4
-30 -25 0 -20 5 -25 25 -25 32 0 45 -28 21 -46 -10 -7 -24 -10 -32 -7 -11 4
-14 -8 -14 -61 0 -58 -2 -66 -19 -66 -10 0 -24 -6 -30 -14 -16 -20 3 -56 29
-56 12 0 20 -8 22 -22 2 -18 10 -23 33 -23 23 0 29 4 27 17 -4 22 36 45 44 25
3 -8 4 -20 2 -28 -2 -11 11 -13 68 -11 l71 3 -5 -26 c-4 -24 -2 -26 24 -23 21
2 30 9 32 26 3 16 10 22 28 22 19 0 24 5 24 25 0 16 -5 23 -13 19 -7 -2 -21 2
-32 10 -16 12 -18 18 -9 33 6 10 21 19 33 21 19 3 21 10 21 67 0 56 2 63 18
58 10 -2 25 3 32 12 18 22 1 50 -29 49 -16 0 -21 5 -21 23 0 19 -5 23 -30 23
-23 0 -30 -5 -30 -19 0 -17 -18 -31 -42 -31 -5 0 -8 12 -6 27 2 21 -2 28 -17
30 -11 2 -14 0 -7 -3 6 -3 12 -17 12 -30 0 -14 6 -27 14 -30 19 -7 56 13 56
31 0 8 9 15 20 15 15 0 20 -7 20 -26 0 -20 4 -25 16 -20 21 8 44 -11 37 -30
-4 -11 -13 -14 -29 -10 -22 6 -24 3 -24 -29 l0 -35 -80 0 -80 0 0 74 c0 50 4
76 13 79 6 3 -12 6 -41 6 -51 1 -52 2 -46 26 5 20 2 25 -13 25 -11 0 -23 -3
-26 -7z m103 -303 c0 -79 0 -80 -25 -80 -20 0 -25 5 -25 24 0 13 -6 26 -14 29
-20 8 -58 -22 -52 -40 4 -10 0 -14 -17 -11 -16 2 -23 11 -25 31 -3 22 -7 27
-21 22 -20 -6 -46 18 -36 35 3 5 17 10 31 10 20 0 24 5 24 30 l0 30 80 0 80 0
0 -80z"/>
<path d="M762 1101 c-8 -4 -12 -19 -10 -32 2 -20 10 -25 48 -29 59 -7 58 -24
-2 -28 -27 -2 -48 -8 -48 -13 0 -6 22 -9 53 -7 46 3 52 6 55 27 5 30 -12 41
-61 41 -53 0 -43 24 11 28 23 2 42 7 42 13 0 11 -70 12 -88 0z"/>
<path d="M892 1053 l3 -58 48 -3 c28 -2 47 1 47 7 0 6 -20 11 -45 11 l-45 0 0
40 0 40 45 0 c25 0 45 5 45 10 0 6 -23 10 -50 10 l-51 0 3 -57z"/>
<path d="M1020 1050 l0 -60 55 0 c30 0 55 5 55 10 0 6 -20 10 -45 10 l-45 0 0
50 c0 28 -4 50 -10 50 -6 0 -10 -27 -10 -60z"/>
<path d="M1156 1094 c-27 -26 -4 -54 44 -54 29 0 40 -4 40 -15 0 -11 -12 -15
-45 -15 -25 0 -45 -4 -45 -10 0 -5 23 -10 50 -10 38 0 52 4 57 16 11 28 -11
49 -56 52 -28 2 -41 8 -41 18 0 10 12 14 45 14 25 0 45 5 45 10 0 16 -77 12
-94 -6z"/>
<path d="M920 1050 c0 -5 14 -10 30 -10 17 0 30 5 30 10 0 6 -13 10 -30 10
-16 0 -30 -4 -30 -10z"/>
</g>
</svg>
